<mxfile host="app.diagrams.net" modified="2023-10-01T13:06:24.830Z" agent="Mozilla/5.0 (Macintosh; Intel Mac OS X 10_15_7) AppleWebKit/605.1.15 (KHTML, like Gecko) Version/17.0 Safari/605.1.15" etag="F5hUebBBhqEc7t4KfKsN" version="22.0.0" type="device">
  <diagram id="C5RBs43oDa-KdzZeNtuy" name="Page-1">
    <mxGraphModel dx="1029" dy="606" grid="1" gridSize="10" guides="1" tooltips="1" connect="1" arrows="1" fold="1" page="1" pageScale="1" pageWidth="827" pageHeight="1169" math="0" shadow="0">
      <root>
        <mxCell id="WIyWlLk6GJQsqaUBKTNV-0" />
        <mxCell id="WIyWlLk6GJQsqaUBKTNV-1" parent="WIyWlLk6GJQsqaUBKTNV-0" />
        <mxCell id="rwwByXTW9cGsVJ3n7Qkp-3" style="edgeStyle=orthogonalEdgeStyle;rounded=0;orthogonalLoop=1;jettySize=auto;html=1;exitX=0.5;exitY=1;exitDx=0;exitDy=0;entryX=0.5;entryY=0;entryDx=0;entryDy=0;" edge="1" parent="WIyWlLk6GJQsqaUBKTNV-1" source="WIyWlLk6GJQsqaUBKTNV-3" target="rwwByXTW9cGsVJ3n7Qkp-0">
          <mxGeometry relative="1" as="geometry" />
        </mxCell>
        <mxCell id="WIyWlLk6GJQsqaUBKTNV-3" value="Начало" style="rounded=1;whiteSpace=wrap;html=1;fontSize=12;glass=0;strokeWidth=1;shadow=0;" parent="WIyWlLk6GJQsqaUBKTNV-1" vertex="1">
          <mxGeometry x="48.25" y="60" width="120" height="40" as="geometry" />
        </mxCell>
        <mxCell id="rwwByXTW9cGsVJ3n7Qkp-57" style="edgeStyle=orthogonalEdgeStyle;rounded=0;orthogonalLoop=1;jettySize=auto;html=1;exitX=0.5;exitY=1;exitDx=0;exitDy=0;entryX=0.5;entryY=0;entryDx=0;entryDy=0;" edge="1" parent="WIyWlLk6GJQsqaUBKTNV-1" source="rwwByXTW9cGsVJ3n7Qkp-0" target="rwwByXTW9cGsVJ3n7Qkp-56">
          <mxGeometry relative="1" as="geometry" />
        </mxCell>
        <mxCell id="rwwByXTW9cGsVJ3n7Qkp-0" value="n" style="shape=parallelogram;perimeter=parallelogramPerimeter;whiteSpace=wrap;html=1;fixedSize=1;" vertex="1" parent="WIyWlLk6GJQsqaUBKTNV-1">
          <mxGeometry x="62" y="130" width="90" height="40" as="geometry" />
        </mxCell>
        <mxCell id="rwwByXTW9cGsVJ3n7Qkp-1" style="edgeStyle=orthogonalEdgeStyle;rounded=0;orthogonalLoop=1;jettySize=auto;html=1;exitX=0.5;exitY=1;exitDx=0;exitDy=0;" edge="1" parent="WIyWlLk6GJQsqaUBKTNV-1" source="rwwByXTW9cGsVJ3n7Qkp-0" target="rwwByXTW9cGsVJ3n7Qkp-0">
          <mxGeometry relative="1" as="geometry" />
        </mxCell>
        <mxCell id="rwwByXTW9cGsVJ3n7Qkp-7" style="edgeStyle=orthogonalEdgeStyle;rounded=0;orthogonalLoop=1;jettySize=auto;html=1;exitX=0.5;exitY=1;exitDx=0;exitDy=0;entryX=0.5;entryY=0;entryDx=0;entryDy=0;" edge="1" parent="WIyWlLk6GJQsqaUBKTNV-1" source="rwwByXTW9cGsVJ3n7Qkp-4" target="rwwByXTW9cGsVJ3n7Qkp-6">
          <mxGeometry relative="1" as="geometry" />
        </mxCell>
        <mxCell id="rwwByXTW9cGsVJ3n7Qkp-35" style="edgeStyle=orthogonalEdgeStyle;rounded=0;orthogonalLoop=1;jettySize=auto;html=1;exitX=1;exitY=0.5;exitDx=0;exitDy=0;entryX=0.5;entryY=0;entryDx=0;entryDy=0;" edge="1" parent="WIyWlLk6GJQsqaUBKTNV-1" source="rwwByXTW9cGsVJ3n7Qkp-4" target="rwwByXTW9cGsVJ3n7Qkp-34">
          <mxGeometry relative="1" as="geometry">
            <Array as="points">
              <mxPoint x="188.5" y="290" />
              <mxPoint x="188.5" y="420" />
              <mxPoint x="107.5" y="420" />
            </Array>
          </mxGeometry>
        </mxCell>
        <mxCell id="rwwByXTW9cGsVJ3n7Qkp-4" value="i = 0, i &amp;lt; n, 1" style="shape=hexagon;perimeter=hexagonPerimeter2;whiteSpace=wrap;html=1;fixedSize=1;" vertex="1" parent="WIyWlLk6GJQsqaUBKTNV-1">
          <mxGeometry x="48" y="270" width="120" height="40" as="geometry" />
        </mxCell>
        <mxCell id="rwwByXTW9cGsVJ3n7Qkp-8" style="edgeStyle=orthogonalEdgeStyle;rounded=0;orthogonalLoop=1;jettySize=auto;html=1;exitX=0.5;exitY=1;exitDx=0;exitDy=0;entryX=0;entryY=0.5;entryDx=0;entryDy=0;" edge="1" parent="WIyWlLk6GJQsqaUBKTNV-1" source="rwwByXTW9cGsVJ3n7Qkp-6" target="rwwByXTW9cGsVJ3n7Qkp-4">
          <mxGeometry relative="1" as="geometry" />
        </mxCell>
        <mxCell id="rwwByXTW9cGsVJ3n7Qkp-6" value="array[i]" style="shape=parallelogram;perimeter=parallelogramPerimeter;whiteSpace=wrap;html=1;fixedSize=1;" vertex="1" parent="WIyWlLk6GJQsqaUBKTNV-1">
          <mxGeometry x="62.5" y="340" width="91" height="40" as="geometry" />
        </mxCell>
        <mxCell id="rwwByXTW9cGsVJ3n7Qkp-48" style="edgeStyle=orthogonalEdgeStyle;rounded=0;orthogonalLoop=1;jettySize=auto;html=1;exitX=0.5;exitY=1;exitDx=0;exitDy=0;entryX=0.5;entryY=0;entryDx=0;entryDy=0;" edge="1" parent="WIyWlLk6GJQsqaUBKTNV-1" source="rwwByXTW9cGsVJ3n7Qkp-9" target="rwwByXTW9cGsVJ3n7Qkp-13">
          <mxGeometry relative="1" as="geometry" />
        </mxCell>
        <mxCell id="rwwByXTW9cGsVJ3n7Qkp-9" value="k = 0" style="rounded=0;whiteSpace=wrap;html=1;" vertex="1" parent="WIyWlLk6GJQsqaUBKTNV-1">
          <mxGeometry x="276.02" y="200" width="80" height="40" as="geometry" />
        </mxCell>
        <mxCell id="rwwByXTW9cGsVJ3n7Qkp-16" style="edgeStyle=orthogonalEdgeStyle;rounded=0;orthogonalLoop=1;jettySize=auto;html=1;exitX=0.5;exitY=1;exitDx=0;exitDy=0;entryX=0.5;entryY=0;entryDx=0;entryDy=0;" edge="1" parent="WIyWlLk6GJQsqaUBKTNV-1" source="rwwByXTW9cGsVJ3n7Qkp-13" target="rwwByXTW9cGsVJ3n7Qkp-15">
          <mxGeometry relative="1" as="geometry" />
        </mxCell>
        <mxCell id="rwwByXTW9cGsVJ3n7Qkp-45" style="edgeStyle=orthogonalEdgeStyle;rounded=0;orthogonalLoop=1;jettySize=auto;html=1;exitX=0;exitY=0.5;exitDx=0;exitDy=0;" edge="1" parent="WIyWlLk6GJQsqaUBKTNV-1" source="rwwByXTW9cGsVJ3n7Qkp-13">
          <mxGeometry relative="1" as="geometry">
            <mxPoint x="312.02" y="510" as="targetPoint" />
            <Array as="points">
              <mxPoint x="220.01999999999998" y="290" />
              <mxPoint x="220.01999999999998" y="490" />
              <mxPoint x="312.02" y="490" />
              <mxPoint x="312.02" y="510" />
            </Array>
          </mxGeometry>
        </mxCell>
        <mxCell id="rwwByXTW9cGsVJ3n7Qkp-13" value="i = 0, i &amp;lt; array.Length, 1" style="shape=hexagon;perimeter=hexagonPerimeter2;whiteSpace=wrap;html=1;fixedSize=1;" vertex="1" parent="WIyWlLk6GJQsqaUBKTNV-1">
          <mxGeometry x="240.01999999999998" y="270" width="151" height="40" as="geometry" />
        </mxCell>
        <mxCell id="rwwByXTW9cGsVJ3n7Qkp-18" style="edgeStyle=orthogonalEdgeStyle;rounded=0;orthogonalLoop=1;jettySize=auto;html=1;exitX=0.5;exitY=1;exitDx=0;exitDy=0;entryX=0.5;entryY=0;entryDx=0;entryDy=0;" edge="1" parent="WIyWlLk6GJQsqaUBKTNV-1" source="rwwByXTW9cGsVJ3n7Qkp-15" target="rwwByXTW9cGsVJ3n7Qkp-17">
          <mxGeometry relative="1" as="geometry" />
        </mxCell>
        <mxCell id="rwwByXTW9cGsVJ3n7Qkp-19" value="yes" style="edgeLabel;html=1;align=center;verticalAlign=middle;resizable=0;points=[];" vertex="1" connectable="0" parent="rwwByXTW9cGsVJ3n7Qkp-18">
          <mxGeometry x="-0.2667" relative="1" as="geometry">
            <mxPoint x="14" as="offset" />
          </mxGeometry>
        </mxCell>
        <mxCell id="rwwByXTW9cGsVJ3n7Qkp-22" style="edgeStyle=orthogonalEdgeStyle;rounded=0;orthogonalLoop=1;jettySize=auto;html=1;exitX=1;exitY=0.5;exitDx=0;exitDy=0;entryX=1;entryY=0.5;entryDx=0;entryDy=0;" edge="1" parent="WIyWlLk6GJQsqaUBKTNV-1" source="rwwByXTW9cGsVJ3n7Qkp-15" target="rwwByXTW9cGsVJ3n7Qkp-13">
          <mxGeometry relative="1" as="geometry">
            <Array as="points">
              <mxPoint x="417.02" y="370" />
              <mxPoint x="417.02" y="290" />
            </Array>
          </mxGeometry>
        </mxCell>
        <mxCell id="rwwByXTW9cGsVJ3n7Qkp-23" value="no" style="edgeLabel;html=1;align=center;verticalAlign=middle;resizable=0;points=[];" vertex="1" connectable="0" parent="rwwByXTW9cGsVJ3n7Qkp-22">
          <mxGeometry x="-0.7548" y="1" relative="1" as="geometry">
            <mxPoint y="-10" as="offset" />
          </mxGeometry>
        </mxCell>
        <mxCell id="rwwByXTW9cGsVJ3n7Qkp-15" value="arr[i].Length &amp;lt;= 3" style="rhombus;whiteSpace=wrap;html=1;" vertex="1" parent="WIyWlLk6GJQsqaUBKTNV-1">
          <mxGeometry x="251.01999999999998" y="340" width="130" height="60" as="geometry" />
        </mxCell>
        <mxCell id="rwwByXTW9cGsVJ3n7Qkp-21" style="edgeStyle=orthogonalEdgeStyle;rounded=0;orthogonalLoop=1;jettySize=auto;html=1;exitX=1;exitY=0.5;exitDx=0;exitDy=0;entryX=1;entryY=0.5;entryDx=0;entryDy=0;" edge="1" parent="WIyWlLk6GJQsqaUBKTNV-1" source="rwwByXTW9cGsVJ3n7Qkp-17" target="rwwByXTW9cGsVJ3n7Qkp-13">
          <mxGeometry relative="1" as="geometry">
            <Array as="points">
              <mxPoint x="447.02" y="450" />
              <mxPoint x="447.02" y="290" />
            </Array>
          </mxGeometry>
        </mxCell>
        <mxCell id="rwwByXTW9cGsVJ3n7Qkp-17" value="k++" style="rounded=0;whiteSpace=wrap;html=1;" vertex="1" parent="WIyWlLk6GJQsqaUBKTNV-1">
          <mxGeometry x="282.02" y="430" width="70" height="40" as="geometry" />
        </mxCell>
        <mxCell id="rwwByXTW9cGsVJ3n7Qkp-32" value="Метод MakeArray()" style="text;html=1;strokeColor=none;fillColor=none;align=center;verticalAlign=middle;whiteSpace=wrap;rounded=0;fontSize=15;fontStyle=1" vertex="1" parent="WIyWlLk6GJQsqaUBKTNV-1">
          <mxGeometry x="18.25" y="20" width="180" height="30" as="geometry" />
        </mxCell>
        <mxCell id="rwwByXTW9cGsVJ3n7Qkp-38" style="edgeStyle=orthogonalEdgeStyle;rounded=0;orthogonalLoop=1;jettySize=auto;html=1;entryX=0.5;entryY=0;entryDx=0;entryDy=0;exitX=0.506;exitY=0.836;exitDx=0;exitDy=0;exitPerimeter=0;" edge="1" parent="WIyWlLk6GJQsqaUBKTNV-1" source="rwwByXTW9cGsVJ3n7Qkp-34" target="rwwByXTW9cGsVJ3n7Qkp-36">
          <mxGeometry relative="1" as="geometry" />
        </mxCell>
        <mxCell id="rwwByXTW9cGsVJ3n7Qkp-34" value="array[]" style="shape=document;whiteSpace=wrap;html=1;boundedLbl=1;" vertex="1" parent="WIyWlLk6GJQsqaUBKTNV-1">
          <mxGeometry x="66.5" y="445" width="81" height="55" as="geometry" />
        </mxCell>
        <mxCell id="rwwByXTW9cGsVJ3n7Qkp-36" value="Конец" style="rounded=1;whiteSpace=wrap;html=1;" vertex="1" parent="WIyWlLk6GJQsqaUBKTNV-1">
          <mxGeometry x="69.5" y="515" width="77" height="50" as="geometry" />
        </mxCell>
        <mxCell id="rwwByXTW9cGsVJ3n7Qkp-39" value="Метод CheckSimbol()" style="text;html=1;strokeColor=none;fillColor=none;align=center;verticalAlign=middle;whiteSpace=wrap;rounded=0;fontSize=15;fontStyle=1" vertex="1" parent="WIyWlLk6GJQsqaUBKTNV-1">
          <mxGeometry x="226.01999999999998" y="20" width="180" height="30" as="geometry" />
        </mxCell>
        <mxCell id="rwwByXTW9cGsVJ3n7Qkp-46" style="edgeStyle=orthogonalEdgeStyle;rounded=0;orthogonalLoop=1;jettySize=auto;html=1;exitX=0.5;exitY=1;exitDx=0;exitDy=0;entryX=0.5;entryY=0;entryDx=0;entryDy=0;" edge="1" parent="WIyWlLk6GJQsqaUBKTNV-1" source="rwwByXTW9cGsVJ3n7Qkp-40" target="rwwByXTW9cGsVJ3n7Qkp-41">
          <mxGeometry relative="1" as="geometry" />
        </mxCell>
        <mxCell id="rwwByXTW9cGsVJ3n7Qkp-40" value="Начало" style="rounded=1;whiteSpace=wrap;html=1;fontSize=12;glass=0;strokeWidth=1;shadow=0;" vertex="1" parent="WIyWlLk6GJQsqaUBKTNV-1">
          <mxGeometry x="256.02" y="60" width="120" height="40" as="geometry" />
        </mxCell>
        <mxCell id="rwwByXTW9cGsVJ3n7Qkp-47" style="edgeStyle=orthogonalEdgeStyle;rounded=0;orthogonalLoop=1;jettySize=auto;html=1;exitX=0.5;exitY=1;exitDx=0;exitDy=0;entryX=0.5;entryY=0;entryDx=0;entryDy=0;" edge="1" parent="WIyWlLk6GJQsqaUBKTNV-1" source="rwwByXTW9cGsVJ3n7Qkp-41" target="rwwByXTW9cGsVJ3n7Qkp-9">
          <mxGeometry relative="1" as="geometry" />
        </mxCell>
        <mxCell id="rwwByXTW9cGsVJ3n7Qkp-41" value="array[]" style="shape=parallelogram;perimeter=parallelogramPerimeter;whiteSpace=wrap;html=1;fixedSize=1;" vertex="1" parent="WIyWlLk6GJQsqaUBKTNV-1">
          <mxGeometry x="271.02" y="130" width="90" height="40" as="geometry" />
        </mxCell>
        <mxCell id="rwwByXTW9cGsVJ3n7Qkp-42" value="k" style="shape=document;whiteSpace=wrap;html=1;boundedLbl=1;" vertex="1" parent="WIyWlLk6GJQsqaUBKTNV-1">
          <mxGeometry x="273.52" y="510" width="81" height="45" as="geometry" />
        </mxCell>
        <mxCell id="rwwByXTW9cGsVJ3n7Qkp-49" value="Конец" style="rounded=1;whiteSpace=wrap;html=1;" vertex="1" parent="WIyWlLk6GJQsqaUBKTNV-1">
          <mxGeometry x="277.52" y="585" width="77" height="50" as="geometry" />
        </mxCell>
        <mxCell id="rwwByXTW9cGsVJ3n7Qkp-50" style="edgeStyle=orthogonalEdgeStyle;rounded=0;orthogonalLoop=1;jettySize=auto;html=1;entryX=0.466;entryY=0.018;entryDx=0;entryDy=0;entryPerimeter=0;exitX=0.509;exitY=0.835;exitDx=0;exitDy=0;exitPerimeter=0;" edge="1" parent="WIyWlLk6GJQsqaUBKTNV-1" source="rwwByXTW9cGsVJ3n7Qkp-42" target="rwwByXTW9cGsVJ3n7Qkp-49">
          <mxGeometry relative="1" as="geometry" />
        </mxCell>
        <mxCell id="rwwByXTW9cGsVJ3n7Qkp-51" value="Метод GiveArray()" style="text;html=1;strokeColor=none;fillColor=none;align=center;verticalAlign=middle;whiteSpace=wrap;rounded=0;fontSize=15;fontStyle=1" vertex="1" parent="WIyWlLk6GJQsqaUBKTNV-1">
          <mxGeometry x="550" y="20" width="180" height="30" as="geometry" />
        </mxCell>
        <mxCell id="rwwByXTW9cGsVJ3n7Qkp-59" style="edgeStyle=orthogonalEdgeStyle;rounded=0;orthogonalLoop=1;jettySize=auto;html=1;exitX=0.5;exitY=1;exitDx=0;exitDy=0;entryX=0.5;entryY=0;entryDx=0;entryDy=0;" edge="1" parent="WIyWlLk6GJQsqaUBKTNV-1" source="rwwByXTW9cGsVJ3n7Qkp-52" target="rwwByXTW9cGsVJ3n7Qkp-53">
          <mxGeometry relative="1" as="geometry" />
        </mxCell>
        <mxCell id="rwwByXTW9cGsVJ3n7Qkp-52" value="Начало" style="rounded=1;whiteSpace=wrap;html=1;fontSize=12;glass=0;strokeWidth=1;shadow=0;" vertex="1" parent="WIyWlLk6GJQsqaUBKTNV-1">
          <mxGeometry x="580" y="60" width="120" height="40" as="geometry" />
        </mxCell>
        <mxCell id="rwwByXTW9cGsVJ3n7Qkp-109" style="edgeStyle=orthogonalEdgeStyle;rounded=0;orthogonalLoop=1;jettySize=auto;html=1;exitX=0.5;exitY=1;exitDx=0;exitDy=0;entryX=0.5;entryY=0;entryDx=0;entryDy=0;" edge="1" parent="WIyWlLk6GJQsqaUBKTNV-1" source="rwwByXTW9cGsVJ3n7Qkp-53" target="rwwByXTW9cGsVJ3n7Qkp-108">
          <mxGeometry relative="1" as="geometry" />
        </mxCell>
        <mxCell id="rwwByXTW9cGsVJ3n7Qkp-53" value="array[]&lt;br&gt;len3" style="shape=parallelogram;perimeter=parallelogramPerimeter;whiteSpace=wrap;html=1;fixedSize=1;" vertex="1" parent="WIyWlLk6GJQsqaUBKTNV-1">
          <mxGeometry x="595" y="130" width="90" height="40" as="geometry" />
        </mxCell>
        <mxCell id="rwwByXTW9cGsVJ3n7Qkp-75" style="edgeStyle=orthogonalEdgeStyle;rounded=0;orthogonalLoop=1;jettySize=auto;html=1;exitX=0.5;exitY=1;exitDx=0;exitDy=0;entryX=0.5;entryY=0;entryDx=0;entryDy=0;" edge="1" parent="WIyWlLk6GJQsqaUBKTNV-1" source="rwwByXTW9cGsVJ3n7Qkp-54" target="rwwByXTW9cGsVJ3n7Qkp-62">
          <mxGeometry relative="1" as="geometry" />
        </mxCell>
        <mxCell id="rwwByXTW9cGsVJ3n7Qkp-54" value="j = 0" style="rounded=0;whiteSpace=wrap;html=1;" vertex="1" parent="WIyWlLk6GJQsqaUBKTNV-1">
          <mxGeometry x="607.05" y="427.5" width="80" height="40" as="geometry" />
        </mxCell>
        <mxCell id="rwwByXTW9cGsVJ3n7Qkp-93" style="edgeStyle=orthogonalEdgeStyle;rounded=0;orthogonalLoop=1;jettySize=auto;html=1;exitX=0.5;exitY=1;exitDx=0;exitDy=0;entryX=0.5;entryY=0;entryDx=0;entryDy=0;" edge="1" parent="WIyWlLk6GJQsqaUBKTNV-1" source="rwwByXTW9cGsVJ3n7Qkp-55" target="rwwByXTW9cGsVJ3n7Qkp-54">
          <mxGeometry relative="1" as="geometry" />
        </mxCell>
        <mxCell id="rwwByXTW9cGsVJ3n7Qkp-55" value="array2 = new string[len3]" style="rounded=0;whiteSpace=wrap;html=1;" vertex="1" parent="WIyWlLk6GJQsqaUBKTNV-1">
          <mxGeometry x="562.05" y="357.5" width="170" height="40" as="geometry" />
        </mxCell>
        <mxCell id="rwwByXTW9cGsVJ3n7Qkp-58" style="edgeStyle=orthogonalEdgeStyle;rounded=0;orthogonalLoop=1;jettySize=auto;html=1;exitX=0.5;exitY=1;exitDx=0;exitDy=0;entryX=0.5;entryY=0;entryDx=0;entryDy=0;" edge="1" parent="WIyWlLk6GJQsqaUBKTNV-1" source="rwwByXTW9cGsVJ3n7Qkp-56" target="rwwByXTW9cGsVJ3n7Qkp-4">
          <mxGeometry relative="1" as="geometry" />
        </mxCell>
        <mxCell id="rwwByXTW9cGsVJ3n7Qkp-56" value="array = new string[n]" style="rounded=0;whiteSpace=wrap;html=1;" vertex="1" parent="WIyWlLk6GJQsqaUBKTNV-1">
          <mxGeometry x="22" y="200" width="170" height="40" as="geometry" />
        </mxCell>
        <mxCell id="rwwByXTW9cGsVJ3n7Qkp-74" style="edgeStyle=orthogonalEdgeStyle;rounded=0;orthogonalLoop=1;jettySize=auto;html=1;exitX=1;exitY=0.5;exitDx=0;exitDy=0;entryX=0.5;entryY=0;entryDx=0;entryDy=0;" edge="1" parent="WIyWlLk6GJQsqaUBKTNV-1" source="rwwByXTW9cGsVJ3n7Qkp-62" target="rwwByXTW9cGsVJ3n7Qkp-72">
          <mxGeometry relative="1" as="geometry">
            <Array as="points">
              <mxPoint x="743.05" y="527.5" />
              <mxPoint x="743.05" y="817.5" />
              <mxPoint x="647.05" y="817.5" />
            </Array>
          </mxGeometry>
        </mxCell>
        <mxCell id="rwwByXTW9cGsVJ3n7Qkp-62" value="i = 0, i &amp;lt; array.Length, 1" style="shape=hexagon;perimeter=hexagonPerimeter2;whiteSpace=wrap;html=1;fixedSize=1;" vertex="1" parent="WIyWlLk6GJQsqaUBKTNV-1">
          <mxGeometry x="571.55" y="507.5" width="151" height="40" as="geometry" />
        </mxCell>
        <mxCell id="rwwByXTW9cGsVJ3n7Qkp-66" style="edgeStyle=orthogonalEdgeStyle;rounded=0;orthogonalLoop=1;jettySize=auto;html=1;exitX=0.5;exitY=1;exitDx=0;exitDy=0;entryX=0.5;entryY=0;entryDx=0;entryDy=0;" edge="1" parent="WIyWlLk6GJQsqaUBKTNV-1" source="rwwByXTW9cGsVJ3n7Qkp-63" target="rwwByXTW9cGsVJ3n7Qkp-64">
          <mxGeometry relative="1" as="geometry" />
        </mxCell>
        <mxCell id="rwwByXTW9cGsVJ3n7Qkp-67" value="yes" style="edgeLabel;html=1;align=center;verticalAlign=middle;resizable=0;points=[];" vertex="1" connectable="0" parent="rwwByXTW9cGsVJ3n7Qkp-66">
          <mxGeometry x="-0.3524" y="2" relative="1" as="geometry">
            <mxPoint x="11" as="offset" />
          </mxGeometry>
        </mxCell>
        <mxCell id="rwwByXTW9cGsVJ3n7Qkp-68" style="edgeStyle=orthogonalEdgeStyle;rounded=0;orthogonalLoop=1;jettySize=auto;html=1;exitX=0;exitY=0.5;exitDx=0;exitDy=0;entryX=0;entryY=0.5;entryDx=0;entryDy=0;" edge="1" parent="WIyWlLk6GJQsqaUBKTNV-1" source="rwwByXTW9cGsVJ3n7Qkp-63" target="rwwByXTW9cGsVJ3n7Qkp-62">
          <mxGeometry relative="1" as="geometry">
            <Array as="points">
              <mxPoint x="537.05" y="607.5" />
              <mxPoint x="537.05" y="527.5" />
            </Array>
          </mxGeometry>
        </mxCell>
        <mxCell id="rwwByXTW9cGsVJ3n7Qkp-69" value="no" style="edgeLabel;html=1;align=center;verticalAlign=middle;resizable=0;points=[];" vertex="1" connectable="0" parent="rwwByXTW9cGsVJ3n7Qkp-68">
          <mxGeometry x="-0.5838" relative="1" as="geometry">
            <mxPoint x="7" y="-11" as="offset" />
          </mxGeometry>
        </mxCell>
        <mxCell id="rwwByXTW9cGsVJ3n7Qkp-63" value="arr[i].Length &amp;lt;= 3" style="rhombus;whiteSpace=wrap;html=1;" vertex="1" parent="WIyWlLk6GJQsqaUBKTNV-1">
          <mxGeometry x="582.05" y="577.5" width="130" height="60" as="geometry" />
        </mxCell>
        <mxCell id="rwwByXTW9cGsVJ3n7Qkp-70" style="edgeStyle=orthogonalEdgeStyle;rounded=0;orthogonalLoop=1;jettySize=auto;html=1;exitX=0.5;exitY=1;exitDx=0;exitDy=0;entryX=0.5;entryY=0;entryDx=0;entryDy=0;" edge="1" parent="WIyWlLk6GJQsqaUBKTNV-1" source="rwwByXTW9cGsVJ3n7Qkp-64" target="rwwByXTW9cGsVJ3n7Qkp-65">
          <mxGeometry relative="1" as="geometry" />
        </mxCell>
        <mxCell id="rwwByXTW9cGsVJ3n7Qkp-64" value="array2[j] = array[I]" style="rounded=0;whiteSpace=wrap;html=1;" vertex="1" parent="WIyWlLk6GJQsqaUBKTNV-1">
          <mxGeometry x="589.55" y="670" width="115" height="40" as="geometry" />
        </mxCell>
        <mxCell id="rwwByXTW9cGsVJ3n7Qkp-71" style="edgeStyle=orthogonalEdgeStyle;rounded=0;orthogonalLoop=1;jettySize=auto;html=1;exitX=0;exitY=0.5;exitDx=0;exitDy=0;entryX=0;entryY=0.5;entryDx=0;entryDy=0;" edge="1" parent="WIyWlLk6GJQsqaUBKTNV-1" source="rwwByXTW9cGsVJ3n7Qkp-65" target="rwwByXTW9cGsVJ3n7Qkp-62">
          <mxGeometry relative="1" as="geometry">
            <Array as="points">
              <mxPoint x="537.05" y="767.5" />
              <mxPoint x="537.05" y="527.5" />
            </Array>
          </mxGeometry>
        </mxCell>
        <mxCell id="rwwByXTW9cGsVJ3n7Qkp-65" value="j++" style="rounded=0;whiteSpace=wrap;html=1;" vertex="1" parent="WIyWlLk6GJQsqaUBKTNV-1">
          <mxGeometry x="612.05" y="747.5" width="70" height="40" as="geometry" />
        </mxCell>
        <mxCell id="rwwByXTW9cGsVJ3n7Qkp-77" style="edgeStyle=orthogonalEdgeStyle;rounded=0;orthogonalLoop=1;jettySize=auto;html=1;entryX=0.5;entryY=0;entryDx=0;entryDy=0;exitX=0.499;exitY=0.877;exitDx=0;exitDy=0;exitPerimeter=0;" edge="1" parent="WIyWlLk6GJQsqaUBKTNV-1" source="rwwByXTW9cGsVJ3n7Qkp-72" target="rwwByXTW9cGsVJ3n7Qkp-76">
          <mxGeometry relative="1" as="geometry" />
        </mxCell>
        <mxCell id="rwwByXTW9cGsVJ3n7Qkp-72" value="array2[]" style="shape=document;whiteSpace=wrap;html=1;boundedLbl=1;" vertex="1" parent="WIyWlLk6GJQsqaUBKTNV-1">
          <mxGeometry x="606.55" y="837.5" width="81" height="55" as="geometry" />
        </mxCell>
        <mxCell id="rwwByXTW9cGsVJ3n7Qkp-76" value="Конец" style="rounded=1;whiteSpace=wrap;html=1;" vertex="1" parent="WIyWlLk6GJQsqaUBKTNV-1">
          <mxGeometry x="608.55" y="927.5" width="77" height="50" as="geometry" />
        </mxCell>
        <mxCell id="rwwByXTW9cGsVJ3n7Qkp-78" value="Непосредственно сама программа" style="text;html=1;strokeColor=none;fillColor=none;align=center;verticalAlign=middle;whiteSpace=wrap;rounded=0;fontSize=17;fontStyle=1" vertex="1" parent="WIyWlLk6GJQsqaUBKTNV-1">
          <mxGeometry x="168.25" y="670" width="180" height="30" as="geometry" />
        </mxCell>
        <mxCell id="rwwByXTW9cGsVJ3n7Qkp-79" value="Начало" style="rounded=1;whiteSpace=wrap;html=1;fontSize=12;glass=0;strokeWidth=1;shadow=0;" vertex="1" parent="WIyWlLk6GJQsqaUBKTNV-1">
          <mxGeometry x="198.25" y="727.5" width="120" height="40" as="geometry" />
        </mxCell>
        <mxCell id="rwwByXTW9cGsVJ3n7Qkp-94" style="edgeStyle=orthogonalEdgeStyle;rounded=0;orthogonalLoop=1;jettySize=auto;html=1;exitX=0.5;exitY=1;exitDx=0;exitDy=0;entryX=0.5;entryY=0;entryDx=0;entryDy=0;" edge="1" parent="WIyWlLk6GJQsqaUBKTNV-1" source="rwwByXTW9cGsVJ3n7Qkp-80" target="rwwByXTW9cGsVJ3n7Qkp-82">
          <mxGeometry relative="1" as="geometry" />
        </mxCell>
        <mxCell id="rwwByXTW9cGsVJ3n7Qkp-80" value="arr = MakeArray()" style="rounded=0;whiteSpace=wrap;html=1;" vertex="1" parent="WIyWlLk6GJQsqaUBKTNV-1">
          <mxGeometry x="173.25" y="797.5" width="170" height="40" as="geometry" />
        </mxCell>
        <mxCell id="rwwByXTW9cGsVJ3n7Qkp-81" style="edgeStyle=orthogonalEdgeStyle;rounded=0;orthogonalLoop=1;jettySize=auto;html=1;exitX=0.5;exitY=1;exitDx=0;exitDy=0;entryX=0.5;entryY=0;entryDx=0;entryDy=0;" edge="1" parent="WIyWlLk6GJQsqaUBKTNV-1" source="rwwByXTW9cGsVJ3n7Qkp-79" target="rwwByXTW9cGsVJ3n7Qkp-80">
          <mxGeometry relative="1" as="geometry" />
        </mxCell>
        <mxCell id="rwwByXTW9cGsVJ3n7Qkp-96" style="edgeStyle=orthogonalEdgeStyle;rounded=0;orthogonalLoop=1;jettySize=auto;html=1;exitX=0.5;exitY=1;exitDx=0;exitDy=0;entryX=0.5;entryY=0;entryDx=0;entryDy=0;" edge="1" parent="WIyWlLk6GJQsqaUBKTNV-1" source="rwwByXTW9cGsVJ3n7Qkp-82" target="rwwByXTW9cGsVJ3n7Qkp-95">
          <mxGeometry relative="1" as="geometry" />
        </mxCell>
        <mxCell id="rwwByXTW9cGsVJ3n7Qkp-82" value="length3 = CheckSimbol(arr)" style="rounded=0;whiteSpace=wrap;html=1;" vertex="1" parent="WIyWlLk6GJQsqaUBKTNV-1">
          <mxGeometry x="173.25" y="857.5" width="170" height="40" as="geometry" />
        </mxCell>
        <mxCell id="rwwByXTW9cGsVJ3n7Qkp-95" value="arr2 = GiveArray(arr, length3)" style="rounded=0;whiteSpace=wrap;html=1;" vertex="1" parent="WIyWlLk6GJQsqaUBKTNV-1">
          <mxGeometry x="173.25" y="917.5" width="170" height="40" as="geometry" />
        </mxCell>
        <mxCell id="rwwByXTW9cGsVJ3n7Qkp-103" style="edgeStyle=orthogonalEdgeStyle;rounded=0;orthogonalLoop=1;jettySize=auto;html=1;exitX=0;exitY=0.5;exitDx=0;exitDy=0;entryX=0.5;entryY=0;entryDx=0;entryDy=0;" edge="1" parent="WIyWlLk6GJQsqaUBKTNV-1" source="rwwByXTW9cGsVJ3n7Qkp-97" target="rwwByXTW9cGsVJ3n7Qkp-102">
          <mxGeometry relative="1" as="geometry" />
        </mxCell>
        <mxCell id="rwwByXTW9cGsVJ3n7Qkp-104" value="no" style="edgeLabel;html=1;align=center;verticalAlign=middle;resizable=0;points=[];" vertex="1" connectable="0" parent="rwwByXTW9cGsVJ3n7Qkp-103">
          <mxGeometry x="-0.5357" relative="1" as="geometry">
            <mxPoint y="-7" as="offset" />
          </mxGeometry>
        </mxCell>
        <mxCell id="rwwByXTW9cGsVJ3n7Qkp-97" value="arr2.Length != 0" style="rhombus;whiteSpace=wrap;html=1;" vertex="1" parent="WIyWlLk6GJQsqaUBKTNV-1">
          <mxGeometry x="193.25" y="977.5" width="130" height="60" as="geometry" />
        </mxCell>
        <mxCell id="rwwByXTW9cGsVJ3n7Qkp-98" style="edgeStyle=orthogonalEdgeStyle;rounded=0;orthogonalLoop=1;jettySize=auto;html=1;entryX=0.5;entryY=0;entryDx=0;entryDy=0;" edge="1" parent="WIyWlLk6GJQsqaUBKTNV-1" target="rwwByXTW9cGsVJ3n7Qkp-97">
          <mxGeometry relative="1" as="geometry">
            <mxPoint x="260" y="957.5" as="sourcePoint" />
          </mxGeometry>
        </mxCell>
        <mxCell id="rwwByXTW9cGsVJ3n7Qkp-107" style="edgeStyle=orthogonalEdgeStyle;rounded=0;orthogonalLoop=1;jettySize=auto;html=1;exitX=0;exitY=0.5;exitDx=0;exitDy=0;entryX=0.5;entryY=0;entryDx=0;entryDy=0;" edge="1" parent="WIyWlLk6GJQsqaUBKTNV-1" source="rwwByXTW9cGsVJ3n7Qkp-99" target="rwwByXTW9cGsVJ3n7Qkp-105">
          <mxGeometry relative="1" as="geometry" />
        </mxCell>
        <mxCell id="rwwByXTW9cGsVJ3n7Qkp-99" value="arr[]&lt;br&gt;arr2[]" style="shape=document;whiteSpace=wrap;html=1;boundedLbl=1;" vertex="1" parent="WIyWlLk6GJQsqaUBKTNV-1">
          <mxGeometry x="343.25" y="1027.5" width="81" height="55" as="geometry" />
        </mxCell>
        <mxCell id="rwwByXTW9cGsVJ3n7Qkp-100" style="edgeStyle=orthogonalEdgeStyle;rounded=0;orthogonalLoop=1;jettySize=auto;html=1;exitX=1;exitY=0.5;exitDx=0;exitDy=0;entryX=0.559;entryY=0.013;entryDx=0;entryDy=0;entryPerimeter=0;" edge="1" parent="WIyWlLk6GJQsqaUBKTNV-1" source="rwwByXTW9cGsVJ3n7Qkp-97" target="rwwByXTW9cGsVJ3n7Qkp-99">
          <mxGeometry relative="1" as="geometry" />
        </mxCell>
        <mxCell id="rwwByXTW9cGsVJ3n7Qkp-101" value="yes" style="edgeLabel;html=1;align=center;verticalAlign=middle;resizable=0;points=[];" vertex="1" connectable="0" parent="rwwByXTW9cGsVJ3n7Qkp-100">
          <mxGeometry x="-0.2383" relative="1" as="geometry">
            <mxPoint y="-9" as="offset" />
          </mxGeometry>
        </mxCell>
        <mxCell id="rwwByXTW9cGsVJ3n7Qkp-106" style="edgeStyle=orthogonalEdgeStyle;rounded=0;orthogonalLoop=1;jettySize=auto;html=1;exitX=1;exitY=0.5;exitDx=0;exitDy=0;entryX=0.5;entryY=0;entryDx=0;entryDy=0;" edge="1" parent="WIyWlLk6GJQsqaUBKTNV-1" source="rwwByXTW9cGsVJ3n7Qkp-102" target="rwwByXTW9cGsVJ3n7Qkp-105">
          <mxGeometry relative="1" as="geometry" />
        </mxCell>
        <mxCell id="rwwByXTW9cGsVJ3n7Qkp-102" value="arr[]" style="shape=document;whiteSpace=wrap;html=1;boundedLbl=1;" vertex="1" parent="WIyWlLk6GJQsqaUBKTNV-1">
          <mxGeometry x="92.25" y="1027.5" width="81" height="55" as="geometry" />
        </mxCell>
        <mxCell id="rwwByXTW9cGsVJ3n7Qkp-105" value="Конец" style="rounded=1;whiteSpace=wrap;html=1;" vertex="1" parent="WIyWlLk6GJQsqaUBKTNV-1">
          <mxGeometry x="219.75" y="1077.5" width="77" height="50" as="geometry" />
        </mxCell>
        <mxCell id="rwwByXTW9cGsVJ3n7Qkp-113" style="edgeStyle=orthogonalEdgeStyle;rounded=0;orthogonalLoop=1;jettySize=auto;html=1;exitX=1;exitY=0.5;exitDx=0;exitDy=0;entryX=0.75;entryY=0;entryDx=0;entryDy=0;" edge="1" parent="WIyWlLk6GJQsqaUBKTNV-1" source="rwwByXTW9cGsVJ3n7Qkp-108" target="rwwByXTW9cGsVJ3n7Qkp-112">
          <mxGeometry relative="1" as="geometry" />
        </mxCell>
        <mxCell id="rwwByXTW9cGsVJ3n7Qkp-114" value="yes" style="edgeLabel;html=1;align=center;verticalAlign=middle;resizable=0;points=[];" vertex="1" connectable="0" parent="rwwByXTW9cGsVJ3n7Qkp-113">
          <mxGeometry x="-0.4927" relative="1" as="geometry">
            <mxPoint y="-9" as="offset" />
          </mxGeometry>
        </mxCell>
        <mxCell id="rwwByXTW9cGsVJ3n7Qkp-117" style="edgeStyle=orthogonalEdgeStyle;rounded=0;orthogonalLoop=1;jettySize=auto;html=1;exitX=0;exitY=0.5;exitDx=0;exitDy=0;" edge="1" parent="WIyWlLk6GJQsqaUBKTNV-1" source="rwwByXTW9cGsVJ3n7Qkp-108">
          <mxGeometry relative="1" as="geometry">
            <mxPoint x="590" y="358" as="targetPoint" />
            <Array as="points">
              <mxPoint x="540" y="230" />
              <mxPoint x="540" y="309" />
              <mxPoint x="590" y="309" />
              <mxPoint x="590" y="358" />
            </Array>
          </mxGeometry>
        </mxCell>
        <mxCell id="rwwByXTW9cGsVJ3n7Qkp-118" value="no" style="edgeLabel;html=1;align=center;verticalAlign=middle;resizable=0;points=[];" vertex="1" connectable="0" parent="rwwByXTW9cGsVJ3n7Qkp-117">
          <mxGeometry x="-0.8845" relative="1" as="geometry">
            <mxPoint x="-3" y="-7" as="offset" />
          </mxGeometry>
        </mxCell>
        <mxCell id="rwwByXTW9cGsVJ3n7Qkp-108" value="&amp;nbsp;len3 == 0" style="rhombus;whiteSpace=wrap;html=1;" vertex="1" parent="WIyWlLk6GJQsqaUBKTNV-1">
          <mxGeometry x="575" y="200" width="130" height="60" as="geometry" />
        </mxCell>
        <mxCell id="rwwByXTW9cGsVJ3n7Qkp-112" value="Элементы длиной в 3 символа и менее в исходном массиве отсутствуют" style="shape=document;whiteSpace=wrap;html=1;boundedLbl=1;" vertex="1" parent="WIyWlLk6GJQsqaUBKTNV-1">
          <mxGeometry x="620" y="275" width="190" height="65" as="geometry" />
        </mxCell>
        <mxCell id="rwwByXTW9cGsVJ3n7Qkp-115" style="edgeStyle=orthogonalEdgeStyle;rounded=0;orthogonalLoop=1;jettySize=auto;html=1;exitX=0;exitY=0.5;exitDx=0;exitDy=0;entryX=0.17;entryY=0.026;entryDx=0;entryDy=0;entryPerimeter=0;" edge="1" parent="WIyWlLk6GJQsqaUBKTNV-1" source="rwwByXTW9cGsVJ3n7Qkp-112" target="rwwByXTW9cGsVJ3n7Qkp-55">
          <mxGeometry relative="1" as="geometry">
            <Array as="points">
              <mxPoint x="590" y="308" />
              <mxPoint x="590" y="358" />
            </Array>
          </mxGeometry>
        </mxCell>
      </root>
    </mxGraphModel>
  </diagram>
</mxfile>
